<svg height="80" viewBox="0 0 529.652 80" width="529.652" xmlns="http://www.w3.org/2000/svg" xmlns:xlink="http://www.w3.org/1999/xlink"><linearGradient id="a" gradientUnits="objectBoundingBox" x2="1" y1=".852" y2=".884"><stop offset="0" stop-color="#00deff"/><stop offset="1" stop-color="#1077e2"/></linearGradient><path d="m35.269-172.019c16.457 0 26.049-7.815 26.049-20.137v-.041c0-9.676-6.078-14.885-18.855-17.2l-6-1.075c-5.954-1.075-8.518-2.357-8.518-5.045v-.041c0-2.729 2.481-4.838 7.319-4.838 4.8 0 8.27 2.067 8.6 5.334l.041.413h16.132l-.041-.91c-.5-11.164-8.973-18.276-24.933-18.276-14.141 0-24.478 7.567-24.478 19.558v.041c0 9.262 6.492 15.258 18.359 17.366l6 1.075c6.616 1.2 9.014 2.357 9.014 5.169v.041c0 2.977-3.225 5.127-8.476 5.127-4.962 0-9.014-2.15-9.717-5.375l-.083-.372h-16.131l.041.786c.62 11.784 10.213 18.4 25.677 18.4zm30.785-1.075h16.953v-25.636c0-4.259 2.44-7.36 6.45-7.36 4.259 0 6.409 2.812 6.409 7.4v25.595h16.953v-29.315c0-10.957-5.623-17.325-15.671-17.325-6.905 0-11.578 3.308-13.81 9.469h-.331v-8.476h-16.953zm75.75.992c14.927 0 24.023-8.559 24.023-23.775v-.083c0-15.009-9.345-23.775-24.023-23.775-14.637 0-23.982 8.89-23.982 23.775v.083c0 15.177 9.014 23.777 23.978 23.777zm.041-12.57c-4.3 0-6.822-3.969-6.822-11.205v-.083c0-7.071 2.6-11.205 6.781-11.205 4.135 0 6.822 4.135 6.822 11.205v.083c.001 7.194-2.563 11.205-6.78 11.205zm52.016 12.57c14.927 0 24.023-8.559 24.023-23.775v-.083c0-15.009-9.345-23.775-24.023-23.775-14.637 0-23.982 8.89-23.982 23.775v.083c.001 15.177 9.015 23.777 23.983 23.777zm.041-12.57c-4.3 0-6.822-3.969-6.822-11.205v-.083c0-7.071 2.6-11.205 6.781-11.205 4.135 0 6.822 4.135 6.822 11.205v.083c.001 7.194-2.562 11.205-6.783 11.205zm52.016 12.57c14.927 0 24.023-8.559 24.023-23.775v-.083c0-15.009-9.345-23.775-24.023-23.775-14.637 0-23.982 8.89-23.982 23.775v.083c.001 15.177 9.015 23.777 23.983 23.777zm.041-12.57c-4.3 0-6.822-3.969-6.822-11.205v-.083c0-7.071 2.6-11.205 6.781-11.205 4.135 0 6.822 4.135 6.822 11.205v.083c.002 7.194-2.562 11.205-6.779 11.205zm52.016 12.57c14.925.002 24.025-8.559 24.025-23.775v-.083c0-15.009-9.345-23.775-24.023-23.775-14.637 0-23.982 8.89-23.982 23.775v.083c0 15.177 9.014 23.777 23.982 23.777zm.041-12.57c-4.3 0-6.822-3.969-6.822-11.205v-.083c0-7.071 2.6-11.205 6.781-11.205 4.135 0 6.822 4.135 6.822 11.205v.083c.003 7.194-2.561 11.205-6.779 11.205zm26.713 11.578h41.142v-12.239h-19.184v-.331l18.276-23.036v-10.048h-39.57v12.248h20.137v.331l-20.8 24.478zm67.689.992c15.878 0 21.088-9.3 22.452-15.258l.13-.54h-15.1l-.041.124c-.455 1.323-2.646 4.011-7.112 4.011-4.631 0-7.443-3.1-7.608-8.352h30.061v-4.8c0-13.893-9.1-22.824-23.32-22.824-14.265 0-23.279 8.931-23.279 23.775v.041c-.001 14.851 9.016 23.825 23.819 23.825zm-.083-35.973c3.68 0 6.244 2.316 6.988 6.368h-13.974c.745-4.052 3.308-6.368 6.988-6.368z" fill="url(#a)" transform="translate(114.449 252.016)"/><path d="m189.38 117.091h-41.453l-7.172-7.963a3.905 3.905 0 0 0 -2.53-1.127h-22.479a6.686 6.686 0 0 0 -6.666 6.666v21.514h86.966v-12.424a6.686 6.686 0 0 0 -6.666-6.666z" fill="#1077e2" transform="translate(-94.384 -108)"/><path d="m47 27h45v45h-45z" fill="#020b0d"/><path d="m162.194 168h-80.251a6.686 6.686 0 0 0 -6.666 6.666v3.634h27.835a2.342 2.342 0 0 1 0 4.685h-40.19a2.342 2.342 0 0 0 -2.342 2.342 2.342 2.342 0 0 0 2.342 2.342h35.478a2.342 2.342 0 1 1 0 4.685h-26.114a2.342 2.342 0 0 0 -2.342 2.342 2.342 2.342 0 0 0 2.342 2.342h18.426a2.342 2.342 0 0 1 0 4.685h-25.212a2.342 2.342 0 0 0 -2.342 2.342 2.342 2.342 0 0 0 2.342 2.342h30.3a2.342 2.342 0 1 1 0 4.685h-26.242a2.342 2.342 0 0 0 -2.342 2.342 2.342 2.342 0 0 0 2.342 2.342h18.806a2.342 2.342 0 1 1 0 4.685h-13.088v2.688a6.686 6.686 0 0 0 6.666 6.666h74.291a6.48 6.48 0 0 0 6.215-5.4l6.791-48.313a6.928 6.928 0 0 0 -7.039-8.102zm-31.92 50.3a19.242 19.242 0 0 1 -2-38.38 16.363 16.363 0 0 0 20.075 25.744 19.25 19.25 0 0 1 -18.075 12.636z" fill="#00deff" transform="translate(-60.58 -149.819)"/></svg>