<svg height="32" viewBox="0 0 32 32" width="32" xmlns="http://www.w3.org/2000/svg" xmlns:xlink="http://www.w3.org/1999/xlink"><clipPath id="a"><path d="m0 0h32v32h-32z"/></clipPath><g clip-path="url(#a)"><path d="m132.711 110.675h-12.2l-2.111-2.343a1.149 1.149 0 0 0 -.745-.332h-6.615a1.968 1.968 0 0 0 -1.962 1.962v6.331h25.593v-3.656a1.968 1.968 0 0 0 -1.96-1.962z" fill="#1077e2" transform="translate(-104.755 -104)"/><path d="m0 0h13.243v13.243h-13.243z" fill="#020b0d" transform="translate(13.831 11.946)"/><path d="m90.483 168h-23.616a1.968 1.968 0 0 0 -1.962 1.962v1.07h8.195a.689.689 0 1 1 0 1.379h-11.831a.689.689 0 0 0 -.689.689.689.689 0 0 0 .689.689h10.441a.689.689 0 1 1 0 1.379h-7.685a.689.689 0 0 0 -.689.689.689.689 0 0 0 .689.689h5.423a.689.689 0 1 1 0 1.379h-7.42a.689.689 0 0 0 -.689.689.689.689 0 0 0 .689.689h8.917a.689.689 0 0 1 0 1.379h-7.723a.689.689 0 0 0 -.689.689.689.689 0 0 0 .689.689h5.534a.689.689 0 1 1 0 1.379h-3.856v.791a1.968 1.968 0 0 0 1.962 1.962h21.867a1.907 1.907 0 0 0 1.829-1.589l2-14.218a2.039 2.039 0 0 0 -2.074-2.385zm-9.393 14.8a5.663 5.663 0 0 1 -.588-11.295 4.815 4.815 0 0 0 5.908 7.576 5.665 5.665 0 0 1 -5.32 3.719z" fill="#00deff" transform="translate(-60.58 -158.65)"/></g></svg>