<svg xmlns="http://www.w3.org/2000/svg" xmlns:xlink="http://www.w3.org/1999/xlink" width="32" height="32" viewBox="0 0 32 32">
  <defs>
    <clipPath id="clip-favicon">
      <rect width="32" height="32"/>
    </clipPath>
  </defs>
  <g id="favicon" clip-path="url(#clip-favicon)">
    <g id="Group_7" data-name="Group 7" transform="translate(0 4)">
      <path id="Path_4" data-name="Path 4" d="M132.711,110.675h-12.2l-2.111-2.343a1.149,1.149,0,0,0-.745-.332h-6.615a1.968,1.968,0,0,0-1.962,1.962v6.331h25.593v-3.656A1.968,1.968,0,0,0,132.711,110.675Z" transform="translate(-104.755 -108)" fill="#1077e2"/>
      <rect id="Rectangle_2" data-name="Rectangle 2" width="13.243" height="13.243" transform="translate(13.831 7.946)" fill="#020b0d"/>
      <path id="Path_5" data-name="Path 5" d="M90.483,168H66.867a1.968,1.968,0,0,0-1.962,1.962v1.07H73.1a.689.689,0,1,1,0,1.379H61.269a.689.689,0,0,0-.689.689h0a.689.689,0,0,0,.689.689H71.71a.689.689,0,1,1,0,1.379H64.025a.689.689,0,0,0-.689.689h0a.689.689,0,0,0,.689.689h5.423a.689.689,0,1,1,0,1.379h-7.42a.689.689,0,0,0-.689.689h0a.689.689,0,0,0,.689.689h8.917a.689.689,0,0,1,0,1.379H63.222a.689.689,0,0,0-.689.689h0a.689.689,0,0,0,.689.689h5.534a.689.689,0,1,1,0,1.379H64.9v.791a1.968,1.968,0,0,0,1.962,1.962H88.729a1.907,1.907,0,0,0,1.829-1.589l2-14.218A2.039,2.039,0,0,0,90.484,168ZM81.09,182.8a5.663,5.663,0,0,1-.588-11.295,4.815,4.815,0,0,0,5.908,7.576A5.665,5.665,0,0,1,81.09,182.8Z" transform="translate(-60.58 -162.65)" fill="#00deff"/>
    </g>
  </g>
</svg>
